<svg width="150" height="47" viewBox="0 0 150 47" fill="none" xmlns="http://www.w3.org/2000/svg">
<g clip-path="url(#clip0_2_75)">
<rect width="150" height="47" fill="white" fill-opacity="0.01"/>
<rect width="230" height="181" transform="translate(-35 -63)" fill="url(#paint0_linear_2_75)"/>
<path d="M4.37372 7.23029H150.428V36.3502H4.37372V7.23029Z" fill="white" fill-opacity="0.01"/>
<path d="M4.37372 7.23029H150.428V12.0834H4.37372V7.23029Z" fill="white" fill-opacity="0.01"/>
<path d="M4.37372 7.23029H150.428V12.0834H4.37372V7.23029Z" fill="white" fill-opacity="0.01"/>
<path d="M5.73114 7.23029H151.785V12.0834H5.73114V7.23029Z" fill="white" fill-opacity="0.01"/>
<path d="M32.4127 21.7966H31.2148C26.7526 21.7966 24.237 20.029 22.0208 18.4736C20.2239 17.2245 17.7982 16.1404 15.4922 16.1404H13.0364C11.7786 16.1404 10.7305 16.9888 10.6706 18.0493C10.6406 18.6385 10.8502 19.1335 11.2995 19.5341C11.7487 19.9583 12.3177 20.1704 12.9765 20.1704H16.9297C23.2187 20.1704 26.9622 22.6686 26.9622 26.8637V32.6849C26.9622 33.7454 26.543 34.641 25.6445 35.3716C24.776 36.1022 23.7578 36.4557 22.5299 36.4321C20.194 36.3614 18.3372 34.641 18.3372 32.5906V23.517C18.3372 22.975 18.6667 22.6922 19.2656 22.6922C19.8945 22.6922 20.2239 22.975 20.2239 23.517V32.6142C20.2239 33.8868 21.3919 34.9002 22.8594 34.806C23.4883 34.7588 24.0273 34.5232 24.4466 34.1225C24.8958 33.7219 25.1055 33.2269 25.1055 32.6849V26.8637C25.1055 22.4565 19.9844 21.7966 16.9297 21.7966H13.0664C10.7903 21.7966 8.87368 20.2411 8.81379 18.2615C8.75389 17.248 9.14321 16.376 9.98176 15.6454C10.7903 14.8913 11.7786 14.5378 12.9765 14.5378H15.4922C18.457 14.5378 21.3021 15.9047 23.1888 17.2009C25.2552 18.6621 27.4114 20.1704 31.2448 20.1704H32.3229C33.5807 20.1704 34.6588 19.3456 34.7187 18.2615C34.7487 17.6958 34.539 17.2009 34.0898 16.7767C33.6107 16.3525 33.0716 16.1404 32.4127 16.1404H23.3086C22.6797 16.1404 22.3802 15.8811 22.3802 15.3391C22.3802 14.797 22.6797 14.5378 23.3086 14.5378H32.3229C34.569 14.5378 36.5156 16.0697 36.5755 18.0493C36.6055 19.0627 36.2161 19.9583 35.4075 20.6889C34.569 21.4195 33.5807 21.7966 32.4127 21.7966Z" fill="#332C54"/>
<path d="M53.4067 22.5066H49.9327V29.7654H46.9379V22.5066H43.464V20.6212H53.4067V22.5066Z" fill="#332C54"/>
<path d="M66.5158 28.0685H61.4845L60.646 29.7654H57.5314L62.5626 20.6212H65.6772L70.5887 29.7654H67.3543L66.5158 28.0685ZM65.6772 26.2774L64.0001 22.8837L62.323 26.2774H65.6772Z" fill="#332C54"/>
<path d="M80.2302 20.5269C81.9672 20.5269 83.4946 20.8568 84.7823 21.4696L83.7042 23.355C83.1352 23.0486 82.5063 22.8365 81.7875 22.6951C81.0688 22.5066 80.4698 22.4123 79.9907 22.4123C79.0922 22.4123 78.6729 22.648 78.6729 23.0722C78.6729 23.3314 78.8526 23.5436 79.2719 23.7321C79.7511 23.9206 80.2602 24.0856 80.8292 24.2035C81.4581 24.3449 82.0571 24.4863 82.6261 24.6748C83.255 24.8633 83.7641 25.1462 84.1834 25.5232C84.6625 25.9003 84.9021 26.4188 84.9021 27.0316C84.9021 27.9271 84.4529 28.6106 83.5844 29.1055C82.686 29.624 81.5779 29.8597 80.2302 29.8597C79.2719 29.8597 78.3136 29.7419 77.3552 29.4826C76.3969 29.1762 75.5584 28.7992 74.8396 28.3514L76.0375 26.5602C76.5766 27.008 77.2654 27.3615 78.074 27.5972C78.8526 27.8564 79.5714 27.9743 80.2302 27.9743C80.7094 27.9743 81.0688 27.9271 81.3084 27.7857C81.6078 27.6679 81.7875 27.4558 81.7875 27.1258C81.7875 26.8902 81.6078 26.7016 81.3084 26.5602C80.9789 26.3717 80.5896 26.2538 80.1104 26.1831C79.6912 26.0653 79.212 25.9475 78.6729 25.8061C78.1039 25.6882 77.5948 25.5704 77.1156 25.429C76.6964 25.2404 76.337 24.9576 76.0375 24.5805C75.7081 24.2035 75.5584 23.7792 75.5584 23.2607C75.5584 22.4594 75.9776 21.7995 76.8761 21.2811C77.7446 20.7861 78.8526 20.5269 80.2302 20.5269Z" fill="#332C54"/>
<path d="M98.2001 29.7654L95.0855 26.1831L93.5282 27.5029V29.7654H90.6532V20.6212H93.5282V24.5805L98.0803 20.6212H101.434L97.122 24.392L101.794 29.7654H98.2001Z" fill="#332C54"/>
<path d="M110.095 29.7654H107.22V20.6212H110.095V29.7654Z" fill="#332C54"/>
<path d="M125.283 22.4123H119.534V24.5805H124.804V26.3717H119.534V29.7654H116.659V20.6212H125.283V22.4123Z" fill="#332C54"/>
<path d="M136.839 26.843V29.7654H133.844V26.843L129.531 20.6212H132.526L135.401 24.5805L138.037 20.6212H141.032L136.839 26.843Z" fill="#332C54"/>
</g>
<defs>
<linearGradient id="paint0_linear_2_75" x1="115" y1="0" x2="252.279" y2="136.629" gradientUnits="userSpaceOnUse">
<stop stop-color="#FFF27E"/>
<stop offset="0.471875" stop-color="#FFA72A" stop-opacity="0.401547"/>
<stop offset="0.732292" stop-color="#FF8100" stop-opacity="0.101042"/>
<stop offset="1" stop-color="#FF800A" stop-opacity="0"/>
</linearGradient>
<clipPath id="clip0_2_75">
<rect width="150" height="47" fill="white"/>
</clipPath>
</defs>
</svg>
