<?xml version="1.0" encoding="utf-8"?>
<!-- Generator: Adobe Illustrator 22.0.1, SVG Export Plug-In . SVG Version: 6.00 Build 0)  -->
<svg version="1.1" id="Layer_1" xmlns="http://www.w3.org/2000/svg" xmlns:xlink="http://www.w3.org/1999/xlink" x="0px" y="0px"
	 viewBox="0 0 500 500" style="enable-background:new 0 0 500 500;" xml:space="preserve">
<style type="text/css">
	.st0{fill:#C5CCED;}
	.st1{fill:#D1D6F2;}
	.st2{fill:#DADAF5;}
	.st3{fill:#F6F6FE;}
	.st4{fill:#EAEAFA;}
	.st5{fill:url(#SVGID_1_);}
	.st6{fill:url(#SVGID_2_);}
	.st7{fill:url(#SVGID_3_);}
	.st8{fill:url(#SVGID_4_);}
	.st9{fill:#F49758;}
	.st10{fill:#4F5CD3;}
	.st11{fill:#212785;}
	.st12{fill:#FB688F;}
	.st13{fill:#C8C8EE;}
	.st14{fill:#FFFFFF;}
	.st15{fill:#FCB3B3;}
	.st16{fill:#FC8E8E;}
	.st17{fill:#F0F2FC;}
	.st18{fill:url(#SVGID_5_);}
	.st19{fill:#E4E8FD;}
	.st20{fill:#3F47C7;}
	.st21{fill:url(#SVGID_6_);}
	.st22{fill:#FF4F7C;}
	.st23{fill:url(#SVGID_7_);}
	.st24{fill:url(#SVGID_8_);}
	.st25{fill:url(#SVGID_9_);}
	.st26{fill:url(#SVGID_10_);}
	.st27{fill:url(#SVGID_11_);}
	.st28{fill:url(#SVGID_12_);}
	.st29{fill:#121C7C;}
	.st30{opacity:0.2;fill:url(#SVGID_13_);}
	.st31{opacity:0.2;fill:url(#SVGID_14_);}
	.st32{opacity:0.2;fill:url(#SVGID_15_);}
	.st33{fill:#342769;}
	.st34{fill:url(#SVGID_16_);}
	.st35{fill:#2E34A5;}
	.st36{fill:url(#SVGID_17_);}
	.st37{fill:url(#SVGID_18_);}
	.st38{fill:url(#SVGID_19_);}
	.st39{fill:url(#SVGID_20_);}
	.st40{fill:url(#SVGID_21_);}
	.st41{fill:url(#SVGID_22_);}
	.st42{fill:url(#SVGID_23_);}
	.st43{fill:url(#SVGID_24_);}
	.st44{fill:url(#SVGID_25_);}
	.st45{fill:none;}
	.st46{fill:url(#SVGID_26_);}
	.st47{fill:url(#SVGID_27_);}
	.st48{fill:url(#SVGID_28_);}
	.st49{fill:#FFA668;}
	.st50{fill:url(#SVGID_29_);}
	.st51{fill:url(#SVGID_30_);}
	.st52{fill:#FFB583;}
	.st53{fill:url(#SVGID_31_);}
	.st54{opacity:0.3;}
	.st55{fill:url(#SVGID_32_);}
	.st56{fill:url(#SVGID_33_);}
	.st57{fill:url(#SVGID_34_);}
	.st58{fill:url(#SVGID_35_);}
	.st59{fill:url(#SVGID_36_);}
	.st60{fill:url(#SVGID_37_);}
	.st61{fill:url(#SVGID_38_);}
	.st62{fill:url(#SVGID_39_);}
	.st63{fill:url(#SVGID_40_);}
	.st64{fill:#EABCBC;}
	.st65{fill:#E7ABAB;}
	.st66{fill:url(#SVGID_41_);}
	.st67{fill:#6870F2;}
	.st68{fill:url(#SVGID_42_);}
	.st69{fill:url(#SVGID_43_);}
	.st70{fill:url(#SVGID_44_);}
	.st71{fill:url(#SVGID_45_);}
	.st72{fill:url(#SVGID_46_);}
	.st73{fill:url(#SVGID_47_);}
	.st74{fill:url(#SVGID_48_);}
	.st75{fill:url(#SVGID_49_);}
	.st76{fill:url(#SVGID_50_);}
	.st77{fill:url(#SVGID_51_);}
	.st78{fill:url(#SVGID_52_);}
	.st79{fill:url(#SVGID_53_);}
	.st80{fill:url(#SVGID_54_);}
	.st81{fill:url(#SVGID_55_);}
	.st82{opacity:0.3;fill:#3F47C7;}
	.st83{fill:#7389FA;}
	.st84{opacity:0.3;fill:#F49758;}
	.st85{opacity:0.5;fill:url(#SVGID_56_);}
	.st86{opacity:0.5;fill:url(#SVGID_57_);}
	.st87{fill:url(#SVGID_58_);}
	.st88{fill:url(#SVGID_59_);}
	.st89{fill:url(#SVGID_60_);}
	.st90{fill:url(#SVGID_61_);}
	.st91{fill:url(#SVGID_62_);}
	.st92{fill:url(#SVGID_63_);}
	.st93{fill:url(#SVGID_64_);}
	.st94{fill:url(#SVGID_65_);}
	.st95{fill:url(#SVGID_66_);}
	.st96{fill:url(#SVGID_67_);}
	.st97{fill:url(#SVGID_68_);}
	.st98{fill:url(#SVGID_69_);}
	.st99{fill:url(#SVGID_70_);}
	.st100{fill:url(#SVGID_71_);}
	.st101{fill:url(#SVGID_72_);}
	.st102{opacity:0.3;fill:#DADAF5;}
	.st103{fill:url(#SVGID_73_);}
	.st104{fill:#D8729C;}
	.st105{fill:url(#SVGID_74_);}
	.st106{fill:url(#SVGID_75_);}
	.st107{fill:url(#SVGID_76_);}
	.st108{opacity:0.3;fill:#FFFFFF;}
	.st109{fill:#FED8D8;}
	.st110{fill:url(#SVGID_77_);}
	.st111{fill:url(#SVGID_78_);}
	.st112{fill:url(#SVGID_79_);}
	.st113{fill:url(#SVGID_80_);}
	.st114{fill:url(#SVGID_81_);}
	.st115{fill:url(#SVGID_82_);}
	.st116{fill:url(#SVGID_83_);}
	.st117{fill:#B1B1DD;}
	.st118{fill:#F2F6F9;}
	.st119{fill:url(#SVGID_84_);}
	.st120{fill:url(#SVGID_85_);}
	.st121{fill:url(#SVGID_86_);}
	.st122{fill:url(#SVGID_87_);}
	.st123{fill:#B7C1E5;}
	.st124{fill:url(#SVGID_88_);}
	.st125{fill:#4C60E2;}
	.st126{fill:url(#SVGID_89_);}
	.st127{fill:url(#SVGID_90_);}
	.st128{fill:url(#SVGID_91_);}
	.st129{fill:url(#SVGID_92_);}
	.st130{fill:url(#SVGID_93_);}
	.st131{fill:url(#SVGID_94_);}
	.st132{fill:url(#SVGID_95_);}
	.st133{fill:url(#SVGID_96_);}
	.st134{fill:url(#SVGID_97_);}
	.st135{fill:#EFC2D3;}
	.st136{fill:url(#SVGID_98_);}
	.st137{fill:url(#SVGID_99_);}
	.st138{fill:url(#SVGID_100_);}
	.st139{fill:url(#SVGID_101_);}
	.st140{fill:#5E72FA;}
	.st141{fill:url(#SVGID_102_);}
	.st142{fill:url(#SVGID_103_);}
	.st143{fill:url(#SVGID_104_);}
	.st144{fill:url(#SVGID_105_);}
	.st145{fill:url(#SVGID_106_);}
	.st146{fill:url(#SVGID_107_);}
	.st147{fill:url(#SVGID_108_);}
	.st148{enable-background:new    ;}
	.st149{fill:#727480;}
	.st150{fill:url(#SVGID_109_);}
	.st151{fill:url(#SVGID_110_);}
	.st152{fill:url(#SVGID_111_);}
	.st153{fill:url(#SVGID_112_);}
	.st154{fill:url(#SVGID_113_);}
	.st155{fill:url(#SVGID_114_);}
	.st156{fill:url(#SVGID_115_);}
	.st157{fill:url(#SVGID_116_);}
	.st158{fill:url(#SVGID_117_);}
	.st159{opacity:0.5;fill:url(#SVGID_118_);}
	.st160{fill:url(#SVGID_119_);}
	.st161{fill:url(#SVGID_120_);}
	.st162{fill:url(#SVGID_121_);}
	.st163{fill:url(#SVGID_122_);}
	.st164{fill:url(#SVGID_123_);}
	.st165{opacity:0.5;fill:url(#SVGID_124_);}
	.st166{opacity:0.5;fill:url(#SVGID_125_);}
	.st167{opacity:0.5;fill:url(#SVGID_126_);}
	.st168{opacity:0.5;fill:url(#SVGID_127_);}
	.st169{opacity:0.5;fill:#C1D3FF;}
	.st170{fill:url(#SVGID_128_);}
	.st171{fill:url(#SVGID_129_);}
	.st172{fill:url(#SVGID_130_);}
	.st173{fill:url(#SVGID_131_);}
	.st174{fill:url(#SVGID_132_);}
	.st175{fill:url(#SVGID_133_);}
	.st176{fill:url(#SVGID_134_);}
	.st177{fill:url(#SVGID_135_);}
	.st178{opacity:0.2;fill:url(#SVGID_136_);}
	.st179{opacity:0.2;fill:url(#SVGID_137_);}
	.st180{opacity:0.2;fill:url(#SVGID_138_);}
	.st181{fill:url(#SVGID_139_);}
	.st182{fill:#41446B;}
	.st183{fill:url(#SVGID_140_);}
	.st184{fill:url(#SVGID_141_);}
	.st185{fill:url(#SVGID_142_);}
	.st186{fill:url(#SVGID_143_);}
	.st187{fill:url(#SVGID_144_);}
	.st188{fill:url(#SVGID_145_);}
	.st189{fill:url(#SVGID_146_);}
	.st190{fill:url(#SVGID_147_);}
	.st191{fill:url(#SVGID_148_);}
	.st192{fill:url(#SVGID_149_);}
	.st193{fill:url(#SVGID_150_);}
	.st194{fill:url(#SVGID_151_);}
	.st195{fill:url(#SVGID_152_);}
	.st196{fill:url(#SVGID_153_);}
	.st197{fill:url(#SVGID_154_);}
	.st198{fill:#BBC2E9;}
	.st199{fill:#CA467E;}
	.st200{fill:#404466;}
	.st201{opacity:0.3;fill:url(#SVGID_155_);}
	.st202{opacity:0.3;fill:url(#SVGID_156_);}
	.st203{fill:#4E63F9;}
	.st204{fill:url(#SVGID_157_);}
	.st205{fill:url(#SVGID_158_);}
	.st206{fill:#4A4F72;}
	.st207{fill:url(#SVGID_159_);}
	.st208{fill:url(#SVGID_160_);}
	.st209{fill:url(#SVGID_161_);}
	.st210{fill:url(#SVGID_162_);}
	.st211{fill:#F788A8;}
	.st212{fill:url(#SVGID_163_);}
	.st213{fill:url(#SVGID_164_);}
	.st214{fill:url(#SVGID_165_);}
	.st215{fill:url(#SVGID_166_);}
	.st216{fill:url(#SVGID_167_);}
	.st217{fill:url(#SVGID_168_);}
	.st218{fill:url(#SVGID_169_);}
	.st219{fill:url(#SVGID_170_);}
	.st220{fill:url(#SVGID_171_);}
	.st221{fill:url(#SVGID_172_);}
	.st222{fill:url(#SVGID_173_);}
	.st223{fill:url(#SVGID_174_);}
	.st224{opacity:0.5;fill:url(#SVGID_175_);}
	.st225{fill:url(#SVGID_176_);}
	.st226{fill:url(#SVGID_177_);}
	.st227{fill:url(#SVGID_178_);}
</style>
<g>
	<g>
		<g>
			<g>
				<g>
					<g>
						<g>
							<g>
								<g>
									<polygon class="st13" points="385.9,214.3 401.7,410.9 61.4,410.9 45.7,214.3 									"/>
									<polygon class="st117" points="385.9,214.3 383.2,181.3 43,181.3 45.7,214.3 									"/>
								</g>
								<g>
									<rect x="38.5" y="220.4" class="st118" width="340.2" height="210.9"/>
									<rect x="38.5" y="185" class="st2" width="340.2" height="35.3"/>
								</g>
								<g>
									<rect x="38.5" y="220.4" class="st118" width="340.2" height="210.9"/>
								</g>
								<g>
									<rect x="38.5" y="220.4" class="st118" width="340.2" height="210.9"/>
								</g>
								<g>
									<rect x="38.5" y="220.4" class="st118" width="340.2" height="210.9"/>
								</g>
								<g>
									<rect x="38.5" y="220.4" class="st118" width="340.2" height="210.9"/>
								</g>
								<g>
									<rect x="38.5" y="220.4" class="st3" width="340.2" height="210.9"/>
								</g>
								<polygon class="st4" points="38.5,185 44.1,178.7 383.2,181.3 378.7,185 								"/>
							</g>
							<g>
								<g>
									<g>
										<g>
											<g>
												<path class="st2" d="M230.3,279.5h-43.5v-33.3h43.5V279.5z M188.6,277.7h39.9V248h-39.9V277.7z"/>
											</g>
										</g>
									</g>
									<g>
										<g>
											<g>
												<path class="st2" d="M272.1,279.5h-43.5v-33.3h43.5V279.5z M230.3,277.7h39.9V248h-39.9V277.7z"/>
											</g>
										</g>
									</g>
									<g>
										<g>
											<g>
												<path class="st2" d="M313.8,279.5h-43.5v-33.3h43.5V279.5z M272.1,277.7H312V248h-39.9V277.7z"/>
											</g>
										</g>
									</g>
									<g>
										<g>
											<path class="st2" d="M355.5,279.5H312v-33.3h43.5V279.5z M313.8,277.7h39.9V248h-39.9V277.7z"/>
										</g>
									</g>
									<g>
										<g>
											<g>
												<path class="st2" d="M105.2,311H61.6v-33.3h43.5V311z M63.4,309.2h39.9v-29.7H63.4V309.2z"/>
											</g>
										</g>
									</g>
									<g>
										<g>
											<g>
												<path class="st2" d="M146.9,311h-43.5v-33.3h43.5V311z M105.2,309.2h39.9v-29.7h-39.9V309.2z"/>
											</g>
										</g>
									</g>
									<g>
										<g>
											<g>
												<path class="st2" d="M188.6,311h-43.5v-33.3h43.5V311z M146.9,309.2h39.9v-29.7h-39.9V309.2z"/>
											</g>
										</g>
									</g>
									<g>
										<g>
											<g>
												<path class="st2" d="M230.3,311h-43.5v-33.3h43.5V311z M188.6,309.2h39.9v-29.7h-39.9V309.2z"/>
											</g>
										</g>
									</g>
									<g>
										<g>
											<g>
												<path class="st2" d="M272.1,311h-43.5v-33.3h43.5V311z M230.3,309.2h39.9v-29.7h-39.9V309.2z"/>
											</g>
										</g>
									</g>
									<g>
										<g>
											<g>
												<path class="st2" d="M313.8,311h-43.5v-33.3h43.5V311z M272.1,309.2H312v-29.7h-39.9V309.2z"/>
											</g>
										</g>
									</g>
									<g>
										<g>
											<g>
												<path class="st2" d="M105.2,311H61.6v-33.3h43.5V311z M63.4,309.2h39.9v-29.7H63.4V309.2z"/>
											</g>
										</g>
									</g>
									<g>
										<g>
											<g>
												<path class="st2" d="M105.2,311H61.6v-33.3h43.5V311z M63.4,309.2h39.9v-29.7H63.4V309.2z"/>
											</g>
										</g>
									</g>
									<g>
										<g>
											<g>
												<path class="st2" d="M105.2,311H61.6v-33.3h43.5V311z M63.4,309.2h39.9v-29.7H63.4V309.2z"/>
											</g>
										</g>
									</g>
									<g>
										<g>
											<g>
												<path class="st2" d="M355.5,311H312v-33.3h43.5V311z M313.8,309.2h39.9v-29.7h-39.9V309.2z"/>
											</g>
										</g>
									</g>
									<g>
										<g>
											<g>
												<path class="st2" d="M105.2,311H61.6v-33.3h43.5V311z M63.4,309.2h39.9v-29.7H63.4V309.2z"/>
											</g>
										</g>
									</g>
									<g>
										<g>
											<g>
												<path class="st2" d="M105.2,311H61.6v-33.3h43.5V311z M63.4,309.2h39.9v-29.7H63.4V309.2z"/>
											</g>
										</g>
									</g>
									<g>
										<g>
											<g>
												<path class="st2" d="M105.2,311H61.6v-33.3h43.5V311z M63.4,309.2h39.9v-29.7H63.4V309.2z"/>
											</g>
										</g>
									</g>
									<g>
										<g>
											<g>
												<path class="st2" d="M105.2,311H61.6v-33.3h43.5V311z M63.4,309.2h39.9v-29.7H63.4V309.2z"/>
											</g>
										</g>
									</g>
									<g>
										<g>
											<g>
												<path class="st2" d="M105.2,311H61.6v-33.3h43.5V311z M63.4,309.2h39.9v-29.7H63.4V309.2z"/>
											</g>
										</g>
									</g>
									<g>
										<g>
											<g>
												<path class="st2" d="M105.2,311H61.6v-33.3h43.5V311z M63.4,309.2h39.9v-29.7H63.4V309.2z"/>
											</g>
										</g>
									</g>
									<g>
										<g>
											<g>
												<path class="st2" d="M105.2,342.5H61.6v-33.3h43.5V342.5z M63.4,340.7h39.9V311H63.4V340.7z"/>
											</g>
										</g>
									</g>
									<g>
										<g>
											<g>
												<path class="st2" d="M146.9,342.5h-43.5v-33.3h43.5V342.5z M105.2,340.7h39.9V311h-39.9V340.7z"/>
											</g>
										</g>
									</g>
									<g>
										<g>
											<g>
												<path class="st2" d="M188.6,342.5h-43.5v-33.3h43.5V342.5z M146.9,340.7h39.9V311h-39.9V340.7z"/>
											</g>
										</g>
									</g>
									<g>
										<g>
											<g>
												<path class="st2" d="M230.3,342.5h-43.5v-33.3h43.5V342.5z M188.6,340.7h39.9V311h-39.9V340.7z"/>
											</g>
										</g>
									</g>
									<g>
										<g>
											<g>
												<path class="st2" d="M272.1,342.5h-43.5v-33.3h43.5V342.5z M230.3,340.7h39.9V311h-39.9V340.7z"/>
											</g>
										</g>
									</g>
									<g>
										<g>
											<g>
												<path class="st2" d="M313.8,342.5h-43.5v-33.3h43.5V342.5z M272.1,340.7H312V311h-39.9V340.7z"/>
											</g>
										</g>
									</g>
									<g>
										<g>
											<g>
												<path class="st2" d="M105.2,342.5H61.6v-33.3h43.5V342.5z M63.4,340.7h39.9V311H63.4V340.7z"/>
											</g>
										</g>
									</g>
									<g>
										<g>
											<g>
												<path class="st2" d="M105.2,342.5H61.6v-33.3h43.5V342.5z M63.4,340.7h39.9V311H63.4V340.7z"/>
											</g>
										</g>
									</g>
									<g>
										<g>
											<g>
												<path class="st2" d="M105.2,342.5H61.6v-33.3h43.5V342.5z M63.4,340.7h39.9V311H63.4V340.7z"/>
											</g>
										</g>
									</g>
									<g>
										<g>
											<g>
												<path class="st2" d="M355.5,342.5H312v-33.3h43.5V342.5z M313.8,340.7h39.9V311h-39.9V340.7z"/>
											</g>
										</g>
									</g>
									<g>
										<g>
											<g>
												<path class="st2" d="M105.2,342.5H61.6v-33.3h43.5V342.5z M63.4,340.7h39.9V311H63.4V340.7z"/>
											</g>
										</g>
									</g>
									<g>
										<g>
											<g>
												<path class="st2" d="M105.2,342.5H61.6v-33.3h43.5V342.5z M63.4,340.7h39.9V311H63.4V340.7z"/>
											</g>
										</g>
									</g>
									<g>
										<g>
											<g>
												<path class="st2" d="M105.2,342.5H61.6v-33.3h43.5V342.5z M63.4,340.7h39.9V311H63.4V340.7z"/>
											</g>
										</g>
									</g>
									<g>
										<g>
											<g>
												<path class="st2" d="M105.2,342.5H61.6v-33.3h43.5V342.5z M63.4,340.7h39.9V311H63.4V340.7z"/>
											</g>
										</g>
									</g>
									<g>
										<g>
											<g>
												<path class="st2" d="M105.2,342.5H61.6v-33.3h43.5V342.5z M63.4,340.7h39.9V311H63.4V340.7z"/>
											</g>
										</g>
									</g>
									<g>
										<g>
											<g>
												<path class="st2" d="M105.2,342.5H61.6v-33.3h43.5V342.5z M63.4,340.7h39.9V311H63.4V340.7z"/>
											</g>
										</g>
									</g>
									<g>
										<g>
											<g>
												<path class="st2" d="M105.2,374H61.6v-33.3h43.5V374z M63.4,372.2h39.9v-29.7H63.4V372.2z"/>
											</g>
										</g>
									</g>
									<g>
										<g>
											<g>
												<path class="st2" d="M146.9,374h-43.5v-33.3h43.5V374z M105.2,372.2h39.9v-29.7h-39.9V372.2z"/>
											</g>
										</g>
									</g>
									<g>
										<g>
											<g>
												<path class="st2" d="M188.6,374h-43.5v-33.3h43.5V374z M146.9,372.2h39.9v-29.7h-39.9V372.2z"/>
											</g>
										</g>
									</g>
									<g>
										<g>
											<g>
												<path class="st2" d="M230.3,374h-43.5v-33.3h43.5V374z M188.6,372.2h39.9v-29.7h-39.9V372.2z"/>
											</g>
										</g>
									</g>
									<g>
										<g>
											<g>
												<path class="st2" d="M272.1,374h-43.5v-33.3h43.5V374z M230.3,372.2h39.9v-29.7h-39.9V372.2z"/>
											</g>
										</g>
									</g>
									<g>
										<g>
											<g>
												<path class="st2" d="M313.8,374h-43.5v-33.3h43.5V374z M272.1,372.2H312v-29.7h-39.9V372.2z"/>
											</g>
										</g>
									</g>
									<g>
										<g>
											<g>
												<path class="st2" d="M105.2,374H61.6v-33.3h43.5V374z M63.4,372.2h39.9v-29.7H63.4V372.2z"/>
											</g>
										</g>
									</g>
									<g>
										<g>
											<g>
												<path class="st2" d="M105.2,374H61.6v-33.3h43.5V374z M63.4,372.2h39.9v-29.7H63.4V372.2z"/>
											</g>
										</g>
									</g>
									<g>
										<g>
											<g>
												<path class="st2" d="M105.2,374H61.6v-33.3h43.5V374z M63.4,372.2h39.9v-29.7H63.4V372.2z"/>
											</g>
										</g>
									</g>
									<g>
										<g>
											<g>
												<path class="st2" d="M355.5,374H312v-33.3h43.5V374z M313.8,372.2h39.9v-29.7h-39.9V372.2z"/>
											</g>
										</g>
									</g>
									<g>
										<g>
											<g>
												<path class="st2" d="M105.2,374H61.6v-33.3h43.5V374z M63.4,372.2h39.9v-29.7H63.4V372.2z"/>
											</g>
										</g>
									</g>
									<g>
										<g>
											<g>
												<path class="st2" d="M105.2,374H61.6v-33.3h43.5V374z M63.4,372.2h39.9v-29.7H63.4V372.2z"/>
											</g>
										</g>
									</g>
									<g>
										<g>
											<g>
												<path class="st2" d="M105.2,374H61.6v-33.3h43.5V374z M63.4,372.2h39.9v-29.7H63.4V372.2z"/>
											</g>
										</g>
									</g>
									<g>
										<g>
											<g>
												<path class="st2" d="M105.2,374H61.6v-33.3h43.5V374z M63.4,372.2h39.9v-29.7H63.4V372.2z"/>
											</g>
										</g>
									</g>
									<g>
										<g>
											<g>
												<path class="st2" d="M105.2,374H61.6v-33.3h43.5V374z M63.4,372.2h39.9v-29.7H63.4V372.2z"/>
											</g>
										</g>
									</g>
									<g>
										<g>
											<g>
												<path class="st2" d="M105.2,374H61.6v-33.3h43.5V374z M63.4,372.2h39.9v-29.7H63.4V372.2z"/>
											</g>
										</g>
									</g>
									<g>
										<g>
											<g>
												<path class="st2" d="M105.2,405.5H61.6v-33.3h43.5V405.5z M63.4,403.6h39.9V374H63.4V403.6z"/>
											</g>
										</g>
									</g>
									<g>
										<g>
											<g>
												<path class="st2" d="M146.9,405.5h-43.5v-33.3h43.5V405.5z M105.2,403.6h39.9V374h-39.9V403.6z"/>
											</g>
										</g>
									</g>
									<g>
										<g>
											<g>
												<path class="st2" d="M188.6,405.5h-43.5v-33.3h43.5V405.5z M146.9,403.6h39.9V374h-39.9V403.6z"/>
											</g>
										</g>
									</g>
									<g>
										<g>
											<g>
												<path class="st2" d="M230.3,405.5h-43.5v-33.3h43.5V405.5z M188.6,403.6h39.9V374h-39.9V403.6z"/>
											</g>
										</g>
									</g>
									<g>
										<g>
											<g>
												<path class="st2" d="M272.1,405.5h-43.5v-33.3h43.5V405.5z M230.3,403.6h39.9V374h-39.9V403.6z"/>
											</g>
										</g>
									</g>
									<g>
										<g>
											<g>
												<path class="st2" d="M105.2,405.5H61.6v-33.3h43.5V405.5z M63.4,403.6h39.9V374H63.4V403.6z"/>
											</g>
										</g>
									</g>
									<g>
										<g>
											<g>
												<path class="st2" d="M105.2,405.5H61.6v-33.3h43.5V405.5z M63.4,403.6h39.9V374H63.4V403.6z"/>
											</g>
										</g>
									</g>
									<g>
										<g>
											<g>
												<path class="st2" d="M105.2,405.5H61.6v-33.3h43.5V405.5z M63.4,403.6h39.9V374H63.4V403.6z"/>
											</g>
										</g>
									</g>
									<g>
										<g>
											<g>
												<path class="st2" d="M105.2,405.5H61.6v-33.3h43.5V405.5z M63.4,403.6h39.9V374H63.4V403.6z"/>
											</g>
										</g>
									</g>
									<g>
										<g>
											<g>
												<path class="st2" d="M105.2,405.5H61.6v-33.3h43.5V405.5z M63.4,403.6h39.9V374H63.4V403.6z"/>
											</g>
										</g>
									</g>
									<g>
										<g>
											<g>
												<path class="st2" d="M105.2,405.5H61.6v-33.3h43.5V405.5z M63.4,403.6h39.9V374H63.4V403.6z"/>
											</g>
										</g>
									</g>
									<g>
										<g>
											<g>
												<path class="st2" d="M105.2,405.5H61.6v-33.3h43.5V405.5z M63.4,403.6h39.9V374H63.4V403.6z"/>
											</g>
										</g>
									</g>
									<g>
										<g>
											<g>
												<path class="st2" d="M105.2,405.5H61.6v-33.3h43.5V405.5z M63.4,403.6h39.9V374H63.4V403.6z"/>
											</g>
										</g>
									</g>
									<g>
										<g>
											<g>
												<path class="st2" d="M105.2,405.5H61.6v-33.3h43.5V405.5z M63.4,403.6h39.9V374H63.4V403.6z"/>
											</g>
										</g>
									</g>
								</g>
							</g>
							<g>
								<linearGradient id="SVGID_1_" gradientUnits="userSpaceOnUse" x1="72.393" y1="326.8024" x2="93.9358" y2="326.8024">
									<stop  offset="2.165098e-07" style="stop-color:#FFB583"/>
									<stop  offset="1" style="stop-color:#FF4F7C"/>
								</linearGradient>
								<path class="st5" d="M72.4,317.5l0.2-0.2c2.2,1.2,4.1,2.6,6,4.1c1,0.7,1.8,1.5,2.8,2.2l0.6,0.5c0.7-0.6,1.5-1.2,2.2-1.8
									c1-0.7,2-1.4,3-2c2.1-1.3,4.3-2.3,6.7-3l0.1,0.2c-3.6,2.5-7,5.2-10.3,8.1l0.3,0.3l2.6,2.3c0.8,0.8,1.7,1.6,2.5,2.5
									c1.7,1.7,3.3,3.4,4.8,5.4l-0.1,0.2c-4-2.7-7.7-5.5-11.4-8.7c-0.2-0.2-0.4-0.3-0.6-0.5c-3.3,2.9-6.4,5.9-9.3,9.1l-0.2-0.1
									c1-2.3,2.3-4.4,3.9-6.2c0.7-1,1.6-1.8,2.4-2.7c0.5-0.5,1.1-1,1.6-1.5C77.5,323,74.9,320.3,72.4,317.5z"/>
							</g>
							<g>
								<linearGradient id="SVGID_2_" gradientUnits="userSpaceOnUse" x1="115.0465" y1="294.3264" x2="136.5893" y2="294.3264">
									<stop  offset="2.165098e-07" style="stop-color:#FFB583"/>
									<stop  offset="1" style="stop-color:#FF4F7C"/>
								</linearGradient>
								<path class="st6" d="M115,285l0.2-0.2c2.2,1.2,4.1,2.6,6,4.1c1,0.7,1.8,1.5,2.8,2.2l0.6,0.5c0.7-0.6,1.5-1.2,2.2-1.8
									c1-0.7,2-1.4,3-2c2.1-1.3,4.3-2.3,6.7-3l0.1,0.2c-3.6,2.5-7,5.2-10.3,8.1l0.3,0.3l2.6,2.3c0.8,0.8,1.7,1.6,2.5,2.5
									c1.7,1.7,3.3,3.4,4.8,5.4l-0.1,0.2c-4-2.7-7.7-5.5-11.4-8.7c-0.2-0.2-0.4-0.3-0.6-0.5c-3.3,2.9-6.4,5.9-9.3,9.1l-0.2-0.1
									c1-2.3,2.3-4.4,3.9-6.2c0.7-1,1.6-1.8,2.4-2.7c0.5-0.5,1.1-1,1.6-1.5C120.1,290.5,117.5,287.8,115,285z"/>
							</g>
							<g>
								<linearGradient id="SVGID_3_" gradientUnits="userSpaceOnUse" x1="156.0776" y1="294.3264" x2="177.6203" y2="294.3264">
									<stop  offset="2.165098e-07" style="stop-color:#FFB583"/>
									<stop  offset="1" style="stop-color:#FF4F7C"/>
								</linearGradient>
								<path class="st7" d="M156.1,285l0.2-0.2c2.2,1.2,4.1,2.6,6,4.1c1,0.7,1.8,1.5,2.8,2.2l0.6,0.5c0.7-0.6,1.5-1.2,2.2-1.8
									c1-0.7,2-1.4,3-2c2.1-1.3,4.3-2.3,6.7-3l0.1,0.2c-3.6,2.5-7,5.2-10.3,8.1l0.3,0.3l2.6,2.3c0.8,0.8,1.7,1.6,2.5,2.5
									c1.7,1.7,3.3,3.4,4.8,5.4l-0.1,0.2c-4-2.7-7.7-5.5-11.4-8.7c-0.2-0.2-0.4-0.3-0.6-0.5c-3.3,2.9-6.4,5.9-9.3,9.1l-0.2-0.1
									c1-2.3,2.3-4.4,3.9-6.2c0.7-1,1.6-1.8,2.4-2.7c0.5-0.5,1.1-1,1.6-1.5C161.2,290.5,158.6,287.8,156.1,285z"/>
							</g>
							<g>
								<linearGradient id="SVGID_4_" gradientUnits="userSpaceOnUse" x1="197.1086" y1="294.3264" x2="218.6514" y2="294.3264">
									<stop  offset="2.165098e-07" style="stop-color:#FFB583"/>
									<stop  offset="1" style="stop-color:#FF4F7C"/>
								</linearGradient>
								<path class="st8" d="M197.1,285l0.2-0.2c2.2,1.2,4.1,2.6,6,4.1c1,0.7,1.8,1.5,2.8,2.2l0.6,0.5c0.7-0.6,1.5-1.2,2.2-1.8
									c1-0.7,2-1.4,3-2c2.1-1.3,4.3-2.3,6.7-3l0.1,0.2c-3.6,2.5-7,5.2-10.3,8.1l0.3,0.3l2.6,2.3c0.8,0.8,1.7,1.6,2.5,2.5
									c1.7,1.7,3.3,3.4,4.8,5.4l-0.1,0.2c-4-2.7-7.7-5.5-11.4-8.7c-0.2-0.2-0.4-0.3-0.6-0.5c-3.3,2.9-6.4,5.9-9.3,9.1l-0.2-0.1
									c1-2.3,2.3-4.4,3.9-6.2c0.7-1,1.6-1.8,2.4-2.7c0.5-0.5,1.1-1,1.6-1.5C202.2,290.5,199.6,287.8,197.1,285z"/>
							</g>
							<g>
								<ellipse class="st123" cx="73.5" cy="199.2" rx="3.7" ry="4.4"/>
								<ellipse class="st123" cx="90.5" cy="199.8" rx="3.7" ry="4.4"/>
								<g>
									<g>
										<path class="st20" d="M91,168.5c0,3.6-0.3,7.1-0.9,10.6l-5,0c0,0,0-0.1,0-0.2c0.6-3.4,1-6.9,1-10.4c0-17-7-28.4-13.6-28.4
											c-6.5,0-13.6,11.4-13.6,28.4s7,28.4,13.6,28.4c1.4,0,2.5,1.1,2.5,2.5c0,1.4-1.1,2.5-2.5,2.5c-10.4,0-18.5-14.7-18.5-33.4
											s8.1-33.4,18.5-33.4C82.9,135.2,91,149.8,91,168.5z"/>
									</g>
									<g>
										<path class="st20" d="M108.5,168.5c0,3.6-0.3,7.1-0.9,10.6l-5,0c0,0,0-0.1,0-0.2c0.6-3.4,1-6.9,1-10.4
											c0-17-7-28.4-13.6-28.4c-6.5,0-13.6,11.4-13.6,28.4s7,28.4,13.6,28.4c1.4,0,2.5,1.1,2.5,2.5c0,1.4-1.1,2.5-2.5,2.5
											c-10.4,0-18.5-14.7-18.5-33.4s8.1-33.4,18.5-33.4C100.4,135.2,108.5,149.8,108.5,168.5z"/>
									</g>
								</g>
							</g>
							<g>
								<ellipse class="st123" cx="320.5" cy="201.2" rx="3.7" ry="4.4"/>
								<ellipse class="st123" cx="337.5" cy="201.8" rx="3.7" ry="4.4"/>
								<g>
									<g>
										<path class="st20" d="M338,170.6c0,3.6-0.3,7.1-0.9,10.6l-5,0c0,0,0-0.1,0-0.2c0.6-3.4,1-6.9,1-10.4
											c0-17-7-28.4-13.6-28.4c-6.5,0-13.6,11.4-13.6,28.4s7,28.4,13.6,28.4c1.4,0,2.5,1.1,2.5,2.5c0,1.4-1.1,2.5-2.5,2.5
											c-10.4,0-18.5-14.7-18.5-33.4s8.1-33.4,18.5-33.4C329.9,137.2,338,151.8,338,170.6z"/>
									</g>
									<g>
										<path class="st20" d="M355.5,170.6c0,3.6-0.3,7.1-0.9,10.6l-5,0c0,0,0-0.1,0-0.2c0.6-3.4,1-6.9,1-10.4
											c0-17-7-28.4-13.6-28.4c-6.5,0-13.6,11.4-13.6,28.4s7,28.4,13.6,28.4c1.4,0,2.5,1.1,2.5,2.5c0,1.4-1.1,2.5-2.5,2.5
											c-10.4,0-18.5-14.7-18.5-33.4s8.1-33.4,18.5-33.4C347.4,137.2,355.5,151.8,355.5,170.6z"/>
									</g>
								</g>
							</g>
							<g>
								<path class="st29" d="M345.5,264.1c0,0.8-0.6,1.5-1.5,1.5h-21.9c-0.8,0-1.5-0.6-1.5-1.5c0-0.8,0.7-1.5,1.5-1.5h21.9
									C344.9,262.7,345.5,263.3,345.5,264.1z"/>
								<path class="st29" d="M334,271.1c0,0.8-0.6,1.5-1.5,1.5h-10.3c-0.8,0-1.5-0.6-1.5-1.5c0-0.8,0.7-1.5,1.5-1.5h10.3
									C333.3,269.7,334,270.3,334,271.1z"/>
							</g>
							<g>
								<path class="st10" d="M137.5,350.7c0,0.8-0.6,1.5-1.5,1.5h-21.9c-0.8,0-1.5-0.6-1.5-1.5c0-0.8,0.7-1.5,1.5-1.5h21.9
									C136.9,349.3,137.5,349.9,137.5,350.7z"/>
								<path class="st10" d="M137.5,357.8c0,0.8-0.6,1.5-1.5,1.5h-21.9c-0.8,0-1.5-0.6-1.5-1.5c0-0.8,0.7-1.5,1.5-1.5h21.9
									C136.9,356.3,137.5,356.9,137.5,357.8z"/>
								<path class="st10" d="M125.9,364.8c0,0.8-0.6,1.5-1.5,1.5h-10.3c-0.8,0-1.5-0.6-1.5-1.5c0-0.8,0.7-1.5,1.5-1.5h10.3
									C125.3,363.3,125.9,364,125.9,364.8z"/>
							</g>
							<linearGradient id="SVGID_5_" gradientUnits="userSpaceOnUse" x1="197.5129" y1="357.3101" x2="218.2471" y2="357.3101">
								<stop  offset="0" style="stop-color:#F788A8"/>
								<stop  offset="1" style="stop-color:#FF4D7B"/>
							</linearGradient>
							<polygon class="st18" points="207.9,347.5 210.3,355 218.2,355 211.8,359.6 214.3,367.2 207.9,362.5 201.5,367.2 
								203.9,359.6 197.5,355 205.4,355 							"/>
						</g>
					</g>
				</g>
				<g>
					<g>
						<linearGradient id="SVGID_6_" gradientUnits="userSpaceOnUse" x1="189.2343" y1="83.1572" x2="192.8485" y2="83.1572">
							<stop  offset="0" style="stop-color:#4048C8"/>
							<stop  offset="1" style="stop-color:#2D32A4"/>
						</linearGradient>
						<path class="st21" d="M191,86.7c-0.8-0.8-1.4-1.9-1.7-3c-0.2-1.1-0.1-2.4,0.3-3.4c0.1-0.3,0.3-0.5,0.5-0.6
							c0.3-0.1,0.6,0.1,0.9,0.3c1.3,1.2,1.9,3.1,1.8,4.8c0,0.4-0.1,0.8-0.3,1.1c-0.2,0.3-0.7,0.5-1,0.3"/>
						<path class="st22" d="M189.3,79.5c-2.5,0.6-5.3,0.6-8.2-0.3c0.3,1,0.8,2,1.3,3c2.5,0.4,4.8,0.2,6.9-0.3V79.5z"/>
						<path class="st12" d="M190.7,80.2c-0.2,0.7-0.4,1.3-0.7,2c-1.4,3.3-4.3,6.5-8.5,8.4c-1-0.6-1.9-1.2-2.7-1.8
							c4.3-1.3,7.7-4.3,9.4-7.4c0.4-0.6,0.7-1.3,0.9-2c0,0,0,0,0.1,0c0.1,0,0.2,0.1,0.2,0.1C189.9,79.8,190.2,80.1,190.7,80.2z"/>
						<g>
							<g>
								<g>
									<linearGradient id="SVGID_7_" gradientUnits="userSpaceOnUse" x1="203.8782" y1="111.7121" x2="193.2016" y2="169.7307">
										<stop  offset="0" style="stop-color:#F788A8"/>
										<stop  offset="1" style="stop-color:#FF4D7B"/>
									</linearGradient>
									<path class="st23" d="M227.8,162c-1.8,1.2-4.7,1.5-4.7,1.5s-1.4,6.2-1.8,6.2c-0.4,0-44.7,1.2-44.7,1.2l-0.1-6.2l0-1.3
										c0,0-1.5,0.2-3.5,0.1c-1.6-0.8-3.1-1.9-4.3-3.3c-3-3.2-4.4-7.6-4.1-11.9l1.9-21.7c1.1-4.8,2.5-9.3,4.6-12.8
										c0.6-1,1.5-1.7,2.6-2c0,0,0,0,0.1,0c0.1-0.1,0.3-0.1,0.4-0.1c3-0.3,9.2-1,16.5-1.5c0.4,0,0.8-0.1,1.2-0.1
										c6.1-0.4,12.7-0.7,18.9-0.7c0.4,0,0.8,0,1.2,0c5.7,0.1,10.8,0.6,14.4,1.6C241,115,229.6,160.8,227.8,162z"/>
									
										<linearGradient id="SVGID_8_" gradientUnits="userSpaceOnUse" x1="74.6824" y1="190.7274" x2="74.6824" y2="174.6035" gradientTransform="matrix(0.9996 -2.738549e-02 2.738549e-02 0.9996 120.8449 6.7919)">
										<stop  offset="0" style="stop-color:#F788A8"/>
										<stop  offset="1" style="stop-color:#FF4D7B"/>
									</linearGradient>
									<path class="st24" d="M228.8,162.4c0,0-2.1,7.1-2.2,7.7c-0.5,3-55.5,7.9-55.5,1.5l-0.1-10.9L228.8,162.4z"/>
									<path class="st22" d="M223.9,128.7c-0.1-2.7-0.1-5.4-0.3-8.1c-0.5,2.7-0.8,5.3-1.2,8c-0.3,2.7-0.6,5.3-0.9,8
										c-0.2,2.7-0.5,5.3-0.6,8l-0.3,4l-0.1,2c0,0.4,0,0.4-0.1,0.5c0,0.1-0.1,0.2-0.2,0.3c-0.2,0.1-0.3,0.2-0.5,0.2l-1.3-0.2
										l-3-0.4c-0.2,0-0.4,0-0.6-0.1v2.4c0.1,0,0.2,0,0.3,0l2.9,0.5c0.6,0.1,0.8,0.2,1.6,0.2c0.8,0,1.6-0.3,2.2-0.7l0.1-0.1l0,0
										c0.4-0.3,0.7-0.7,0.9-1.3c0.2-0.5,0.3-1.2,0.3-1.4l0.1-2l0.2-4c0.2-2.7,0.2-5.4,0.3-8C223.8,134.1,223.9,131.4,223.9,128.7
										z"/>
									<path class="st22" d="M188,150.6c-1.2,0-2.3-0.1-3.5-0.1l-3-0.1l-1.3,0c-0.2,0-0.3-0.1-0.5-0.3c-0.1-0.1-0.1-0.2-0.2-0.3
										c0-0.2,0-0.1,0-0.5l0.2-2l0.3-4c0.2-2.7,0.4-5.4,0.5-8c0.1-2.7,0.2-5.4,0.3-8.1c0-2.7,0.1-5.4,0-8.1
										c-0.6,2.6-1,5.3-1.4,7.9c-0.4,2.7-0.8,5.3-1.1,8c-0.3,2.7-0.6,5.3-0.9,8l-0.4,4l-0.2,2c0,0.2-0.1,1,0.1,1.5
										c0.1,0.5,0.4,1,0.7,1.4l0,0l0.1,0.1c0.5,0.5,1.3,0.9,2.1,1c0.8,0,1.1,0,1.6,0l3-0.1c1.2,0,2.3-0.1,3.5-0.1V150.6z"/>
									
										<linearGradient id="SVGID_9_" gradientUnits="userSpaceOnUse" x1="38.4639" y1="129.0252" x2="83.9654" y2="142.738" gradientTransform="matrix(0.9996 -2.738549e-02 2.738549e-02 0.9996 120.8449 6.7919)">
										<stop  offset="0" style="stop-color:#F788A8"/>
										<stop  offset="1" style="stop-color:#FF4D7B"/>
									</linearGradient>
									<path class="st25" d="M187.5,151.6l-7.1,0.1c-0.8,0-1.3-0.4-1.6-0.7c-0.2-0.3-0.6-0.8-0.5-1.6l2.6-30.3
										c0.3-3.7-2.4-7-6.2-7.3c-0.2,0-0.5,0-0.8,0c0,0,0,0-0.1,0c-3.3,0.1-6.2,2.7-6.5,6.2l-0.7,8.6l-1.9,21.7
										c-0.4,4.3,1.1,8.7,4.1,11.9c1.2,1.3,2.7,2.4,4.3,3.2c0.9,0.5,1.8,0.8,2.8,1.1c0.2,0.1,0.5,0.1,0.7,0.2
										c1.2,0.3,2.5,0.5,3.7,0.5l6.9,0.8L187.5,151.6z"/>
								</g>
								<g>
									<linearGradient id="SVGID_10_" gradientUnits="userSpaceOnUse" x1="223.7535" y1="136.5917" x2="221.8898" y2="163.9641">
										<stop  offset="0" style="stop-color:#F788A8"/>
										<stop  offset="1" style="stop-color:#FF4D7B"/>
									</linearGradient>
									<path class="st26" d="M235.9,120.4l-0.2,30.4c0,4.4-1.9,8.5-5.1,11.5c-2.1,1.9-4.7,3.2-7.4,3.7c-1.5,0.3-3,0.4-4.5,0.2
										l-9-0.3l0.1-14.4l10.2,1.3c0.8,0.1,1.3-0.3,1.6-0.5c0.3-0.2,0.7-0.7,0.7-1.5l0.2-30.4c0-3.7,1.6-8.8,5.3-8.8
										C231.5,111.5,235.9,116.6,235.9,120.4z"/>
								</g>
							</g>
							<path class="st14" d="M212,109.4c0,2-1.1,3.9-3,5.4c-1.9,1.5-4.5,2.4-7.2,2.5c-0.3,0-0.5,0-0.8,0c-5.6,0-10-3.1-10.2-7.2v0
								c0.4,0,0.8-0.1,1.2-0.1c6.1-0.4,12.7-0.7,18.9-0.7C211.2,109.4,211.6,109.4,212,109.4z"/>
							<linearGradient id="SVGID_11_" gradientUnits="userSpaceOnUse" x1="201.3912" y1="100.0336" x2="201.3912" y2="114.3671">
								<stop  offset="3.603600e-03" style="stop-color:#FCB3B3"/>
								<stop  offset="1" style="stop-color:#FC8E8E"/>
							</linearGradient>
							<path class="st27" d="M210.8,109.4c-0.1,3.5-4,6.5-9.1,6.8c-5.2,0.3-9.6-2.4-9.8-6.1v0c1.2-0.1,2.4-0.2,3.6-0.2V92.2
								c0-2.9,2.3-5.2,5.2-5.2c1.4,0,2.8,0.6,3.7,1.5c0.9,0.9,1.5,2.3,1.5,3.7v17.2C207.6,109.4,209.3,109.4,210.8,109.4z"/>
							<g>
								<linearGradient id="SVGID_12_" gradientUnits="userSpaceOnUse" x1="200.5661" y1="85.1254" x2="200.5661" y2="104.7062">
									<stop  offset="3.603600e-03" style="stop-color:#FCB3B3"/>
									<stop  offset="1" style="stop-color:#FC8E8E"/>
								</linearGradient>
								<path class="st28" d="M201.5,105c-5.3,0.3-9.9-3.7-10.2-9l-0.8-12.9c0-0.2,0-0.5,0-0.7c0-0.8,0.1-1.5,0.3-2.2
									c1-4,4.5-7.1,8.8-7.3c2.7-0.2,5.1,0.8,7,2.4c1.8,1.6,3,4,3.2,6.6l0.1,0.8l0.1,2.1l0.6,9.9
									C210.9,100.1,206.8,104.7,201.5,105z"/>
								<linearGradient id="SVGID_13_" gradientUnits="userSpaceOnUse" x1="187.7998" y1="87.6261" x2="191.9003" y2="87.6261">
									<stop  offset="3.603600e-03" style="stop-color:#FCB3B3"/>
									<stop  offset="1" style="stop-color:#FC8E8E"/>
								</linearGradient>
								<path style="fill:url(#SVGID_13_);" d="M191.9,91.8c-1,0.1-1.8-0.7-2.3-1.5c-0.9-1.4-1.5-3-1.8-4.7
									c-0.1-0.7-0.1-1.5,0.5-1.9c0.3-0.3,0.8-0.2,1.2-0.1c0.4,0.2,0.7,0.5,1,0.8c0.8,0.9,1.2,2.1,1.3,3.3L191.9,91.8z"/>
								<g>
									<g>
										<path class="st11" d="M207.7,86.9c-1.1,0.3-2.4,0.2-3.4-0.4c-0.2-0.1-0.2-0.3,0-0.4c0.5-0.2,1.1-0.2,1.7-0.1
											c0.6,0.1,1.2,0.2,1.7,0.5C207.9,86.7,207.9,86.9,207.7,86.9z"/>
									</g>
									<g>
										<path class="st11" d="M198.6,86.3c-1,0.5-2.4,0.7-3.4,0.3c-0.2-0.1-0.2-0.3,0-0.4c0.5-0.3,1.1-0.4,1.7-0.5
											c0.6-0.1,1.2,0,1.7,0.2C198.8,86,198.8,86.2,198.6,86.3z"/>
									</g>
									<g>
										<g>
											<path class="st14" d="M199.7,101.6c-1.3,0-2.2-1-2.5-1.6c-0.1-0.2,0-0.4,0.2-0.5c0.2-0.1,0.4,0,0.5,0.2
												c0,0.1,0.9,1.7,2.7,1.1c0.2-0.1,0.4,0,0.5,0.2c0.1,0.2,0,0.4-0.2,0.5C200.4,101.6,200,101.6,199.7,101.6z"/>
										</g>
										<g>
											<circle class="st11" cx="197.8" cy="92.4" r="0.7"/>
										</g>
										<g>
											<circle class="st11" cx="205.2" cy="92.6" r="0.7"/>
										</g>
										<g>
											<path class="st14" d="M205.8,95.5c-1.9-0.1-3.4-1.6-3.3-3.5c0.1-1.9,1.6-3.4,3.5-3.3c1.9,0.1,3.4,1.6,3.3,3.5
												C209.3,94,207.7,95.5,205.8,95.5z M206,89.2c-1.6,0-2.9,1.2-2.9,2.8c0,1.6,1.2,2.9,2.8,2.9s2.9-1.2,2.9-2.8
												C208.8,90.5,207.6,89.2,206,89.2z"/>
										</g>
										<g>
											<path class="st14" d="M198,95.2c-1.9-0.1-3.4-1.6-3.3-3.5c0.1-1.9,1.6-3.4,3.5-3.3c1.9,0.1,3.4,1.6,3.3,3.5
												C201.5,93.8,199.9,95.3,198,95.2z M198.1,88.9c-1.6,0-2.9,1.2-2.9,2.8c0,1.6,1.2,2.9,2.8,2.9c1.6,0,2.9-1.2,2.9-2.8
												C201,90.3,199.7,89,198.1,88.9z"/>
										</g>
										<g>
											<path class="st14" d="M201.3,92.1l-0.4-0.4c0.4-0.4,0.8-0.5,1.2-0.5c0.3,0,0.6,0.2,0.8,0.6l-0.5,0.3
												c-0.1-0.2-0.3-0.3-0.4-0.3C201.9,91.7,201.6,91.9,201.3,92.1z"/>
										</g>
									</g>
									<g>
										<path class="st16" d="M203.1,97.8l-2.7-0.1c-0.2,0-0.3-0.2-0.2-0.4c0.5-0.9,0.9-1.8,1.1-2.7c0-0.1,0.1-0.2,0.2-0.2l0.5,0
											c0.1,0,0.2,0.1,0.2,0.2c0.2,0.9,0.6,1.8,1,2.8C203.4,97.6,203.3,97.8,203.1,97.8z"/>
									</g>
								</g>
								<g>
									<linearGradient id="SVGID_14_" gradientUnits="userSpaceOnUse" x1="188.5349" y1="79.0478" x2="216.4712" y2="79.0478">
										<stop  offset="0" style="stop-color:#4048C8"/>
										<stop  offset="1" style="stop-color:#2D32A4"/>
									</linearGradient>
									<path style="fill:url(#SVGID_14_);" d="M214,82.2c-4.3,2.6-20-0.5-20.2-0.6c0,0-0.1,0.1-0.1,0.2c-0.2,1.3-0.3,8.5-1,9.6
										c-0.8,1.2-0.7-1.4-0.9-2.1c-0.2-0.7-1.1-4.8-1.1-4.8s-0.1-1.9-0.9-3.6c-0.8-1.7-2.3-5.6-0.3-8.2c2-2.5,4.4-1,4.4-1
										s5.8-6.1,11.6-5.2c5.8,0.9,3.1,5.3,3.1,5.3s3-0.7,5.1-0.1c1.1,0.3,1.9,0.8,2,1.9C215.6,73.6,218.3,79.6,214,82.2z"/>
								</g>
							</g>
						</g>
						<g>
							<path class="st10" d="M253.4,179.7c-11.6,7.9-47.6,32.7-49.5,33.6c-2.3,1.1-5.4-4.8-6.5-8c-1-3.1,5.5-9.1,5.5-9.1l-16.9-0.8
								c0,0,4.2,4.4,7.5,10.9c3.3,6.6-8.2,10.3-8.2,10.3s-36.4-36.8-40.1-43.6c-3.7-6.8-2.4-21.6,9.3-17.8c4.8,1.6,9.7,4.8,13.7,8.1
								c1.9,1.6,3.7,3.1,5.2,4.5c3,2.8,7,4.3,11.1,4c2.2-0.2,4.7-0.3,7.4-0.4c8.4-0.4,17.6-0.6,17.6-0.6c19.3-6.1,30-8.1,35.3-8.6
								c3.6-0.4,7.3,0.7,9.9,3.2c0.4,0.4,0.7,0.7,1,1.1C259,170.6,257.8,176.7,253.4,179.7z"/>
							<path class="st20" d="M203,196.3c1.1-1,4.8-2.7,8.3-6c5-4.6,15.1-11.1,15.1-11.1c-3.6,0.8-18.7,5.8-22.1,7.1
								c-3.4,1.2-15.2-0.3-19-1.3c-3.8-1-13.1-9.1-13.1-9.1l13.7,19.6L203,196.3z"/>
						</g>
						<path class="st20" d="M191.9,171.4c-4.1,1.2-8.1,2.4-12.2,3.6c-1.2,0.3-2.6,0.7-3.6,0c-0.8-0.5-1.2-1.4-1.6-2.2
							c-1.6-3.5-3.8-6.7-6.3-9.5c1.9,1.6,3.7,3.1,5.2,4.5c3,2.8,7,4.3,11.1,4C186.7,171.6,189.3,171.5,191.9,171.4z"/>
						<ellipse class="st135" cx="209.7" cy="158.7" rx="4.7" ry="7.2"/>
						<ellipse class="st135" cx="187.7" cy="158.8" rx="4.7" ry="7.2"/>
						<g>
							<g>
								<g>
									<path class="st14" d="M199.2,144.8c-6.9-5.4-14.8-10.8-23.6-15.9c1.3,13.5,2.6,24.9,3.9,34.6c7.4,3.3,14,6.9,19.7,10.7
										C199.2,165.9,199.2,156.2,199.2,144.8z"/>
								</g>
								<g>
									<linearGradient id="SVGID_15_" gradientUnits="userSpaceOnUse" x1="174.0935" y1="152.8837" x2="199.2196" y2="152.8837">
										<stop  offset="1.082549e-07" style="stop-color:#F5F5FF"/>
										<stop  offset="1" style="stop-color:#CFCFF2"/>
									</linearGradient>
									<path style="fill:url(#SVGID_15_);" d="M199.2,174.2c-5.7-3.7-12.3-7.2-19.6-10.4c-1.7-9.2-3.5-19.8-5.5-32.3
										c9.2,4.1,17.6,8.5,25.1,13.3C199.2,156.2,199.2,165.9,199.2,174.2z"/>
								</g>
							</g>
							<g>
								<g>
									<path class="st14" d="M199.2,144.8c6.9-5.4,14.8-10.8,23.6-15.9c-1.3,13.5-2.6,24.9-3.9,34.6c-7.4,3.3-14,6.9-19.7,10.7
										C199.2,165.9,199.2,156.2,199.2,144.8z"/>
								</g>
								<g>
									<linearGradient id="SVGID_16_" gradientUnits="userSpaceOnUse" x1="199.2196" y1="152.8837" x2="224.3457" y2="152.8837">
										<stop  offset="1.082549e-07" style="stop-color:#F5F5FF"/>
										<stop  offset="1" style="stop-color:#CFCFF2"/>
									</linearGradient>
									<path class="st34" d="M199.2,174.2c5.7-3.7,12.3-7.2,19.6-10.4c1.7-9.2,3.5-19.8,5.5-32.3c-9.2,4.1-17.6,8.5-25.1,13.3
										C199.2,156.2,199.2,165.9,199.2,174.2z"/>
								</g>
								<path class="st10" d="M205.7,148.4c0,1.6,0,3.2-0.1,4.7c3.5-2.2,7.2-4.3,11-6.4c0.3-1.7,0.5-3.5,0.8-5.3
									C213.4,143.6,209.4,146,205.7,148.4z"/>
							</g>
						</g>
						<linearGradient id="SVGID_17_" gradientUnits="userSpaceOnUse" x1="215.5388" y1="87.5549" x2="214.5781" y2="86.5942">
							<stop  offset="0" style="stop-color:#4048C8"/>
							<stop  offset="1" style="stop-color:#2D32A4"/>
						</linearGradient>
						<path class="st36" d="M214,82.4c-0.9,0.6-2.4,0.9-4.1,1l0-0.7c-4.9,0.6-9.9,0.3-14.7-1.1c0,0,0.1,0,0.1,0
							c0.7,0,1.4,0.1,2.1,0.1c1.4,0,2.8,0,4.2-0.2c2.9-0.4,5.8-1.5,8-3.4c1.9-1.7,3.1-3.9,4.1-6.2c1.1,0.3,1.9,0.8,2,1.9
							C215.6,73.8,218.3,79.8,214,82.4z"/>
						<path class="st12" d="M210,84.9c-6.6,0.8-13.3,0-19.4-2.5c-0.2-0.1-0.3-0.1-0.5-0.2c-0.6-0.2-1.2-0.5-1.8-0.8
							c0.4-0.6,0.7-1.3,0.9-2c0,0,0,0,0.1,0c0.1,0,0.2,0.1,0.2,0.1c0.5,0.2,0.9,0.4,1.4,0.6c6,2.5,12.6,3.4,19,2.5L210,84.9z"/>
					</g>
					<g>
						<path class="st15" d="M219.3,234.6c-0.1,2.4-5.7,4.8-8.2,4.8c-2.6,0-7.8-8.6-10.1-11.8c-1-1.5-3.8-4.3-6.5-7
							c-3.2-3.1-6.4-6-6.4-6s3.9-5.6,4.3-4.6c0.2,0.5,3.4,3.9,6.8,7.2c2.8,2.8,5.7,5.5,7.1,6.5C209.2,225.7,219.4,232.2,219.3,234.6
							z"/>
						<path class="st16" d="M199.1,217.1c-1.5,1-3.1,2.2-4.7,3.5c-3.2-3.1-6.4-6-6.4-6s3.9-5.6,4.3-4.6
							C192.6,210.4,195.8,213.8,199.1,217.1z"/>
						<path class="st15" d="M184,228.1c-0.6,3.4,2,13.7,2,14.6c0,0.9-1.7,3.8-5.2,3.6c-2.4-0.1-2.9-6.5-3.1-10.6
							c-0.1-2.1-0.7-4.2-1.7-6.1c-1.1-2-2.1-4.6-1.2-5.8c1.6-2.1,4.6-1.6,7.3-3.1c2.7-1.5,17.1-14.7,17.1-14.7l3.7,5.6
							C195.9,216.6,184.5,224.7,184,228.1z"/>
					</g>
					<path class="st10" d="M191.2,202.3h-19.9c7.7,8,14,14.4,14,14.4s11.5-3.8,8.2-10.3C192.8,204.9,192,203.5,191.2,202.3z"/>
					<path class="st10" d="M198,202.3c-0.6,1.1-0.9,2.2-0.6,3.1c1,3.1,4.1,9.1,6.5,8c0.8-0.4,7.9-5.1,16.6-11.1H198z"/>
				</g>
				<g>
					<g id="XMLID_200_">
						<path id="XMLID_201_" class="st15" d="M384.5,267.4l-4.4,2.5c0,0-1.5-1.1-3.4-1.1s-4.6-1-5-1.3c0,0-0.9-0.5-1.1-0.8
							c-0.2-0.3-0.4-1-0.8-0.9s-1,0.8,0,2.2s2,1.6,2.4,2.2c0.4,0.6,0.2,1.1-0.1,1.4c-0.3,0.3-2.1,1.1-2.6,1.3
							c-0.5,0.2-2.7,0.7-3.8,1c-1.1,0.3-3.2,1-3.4,1.7s0.6,0.9,1.1,0.8c0.5-0.1,2.5-0.6,3.1-0.6c0.6,0,2.8-0.7,3-0.7s0.6,0,0.6,0.4
							c0,0.4-2.3,0.9-3.3,1.5c-1,0.6-2,1-3,1.4s-1.3,1.1-1.1,1.6c0.3,0.5,1,0.4,2.1,0c1.1-0.4,3.1-1.2,3.7-1.4
							c0.5-0.2,2.1-1,2.4-0.9c0.4,0.1,0.6,0.5,0.2,0.9s-1.7,1.1-2.3,1.8c-0.7,0.7-2.3,1.9-2.4,2c0,0-0.9,0.6-0.5,1.2
							c0.4,0.7,1.3,0.2,2.3-0.5s2.4-1.5,2.8-1.9c0.3-0.3,2-1.4,2.2-1.4s0.9,0.2,0.3,1.2c-0.6,0.9-2.1,3.4-1.9,3.7
							c0.2,0.4,0.5,0.5,1,0.3c0.6-0.3,2.2-2.9,2.4-3.2c0.2-0.3,1.1-1.6,1.6-2.1s2.3-1,3.3-1.6c1.7-1,1.4-2,2-2.2
							c0.2-0.1,5.7-2.9,5.7-2.9L384.5,267.4z"/>
					</g>
					<path id="XMLID_198_" class="st16" d="M367.6,275.6c0,0,1.5-1.1,2.5-0.6c1,0.5-0.7,1.1-0.7,1.1s0.8-0.3,0.7-0.5
						C369.9,274.8,367.6,275.6,367.6,275.6z"/>
					<path id="XMLID_197_" class="st16" d="M372.3,280.4c0,0,0.5-0.7,1.2-0.6s0.1,1.2,0.1,1.2s0.4-0.7-0.1-0.8
						C372.9,280,372.3,280.4,372.3,280.4z"/>
					<path id="XMLID_196_" class="st16" d="M369.5,266.2c0,0,0,1.6,1.1,2.3s2.7,1.3,1.9,3c0,0,0.5-0.6-0.5-1.4
						c-1-0.8-1.4-0.9-2.1-1.9C368.9,267,369.5,266.2,369.5,266.2z"/>
					<path id="XMLID_195_" class="st16" d="M376.5,279.8c0,0,0.6-0.9,1.6-1.2s1.6-0.7,1.9-1.6s1.5-1.8,3.5-1.8l-1.6,0.8
						c0,0-0.3,0.2-0.4,0.5c-0.2,0.4-0.6,1.2-1.4,1.6C379.3,278.5,376.5,279.8,376.5,279.8z"/>
					<path class="st17" d="M390,264.2l-6.3,2.8c-2,0.9-2.9,3.2-2,5.2l0.2,0.4c0.9,2,3.2,2.8,5.2,2l6.3-2.8c2-0.9,2.8-3.2,2-5.2
						l-0.2-0.4C394.3,264.2,391.9,263.3,390,264.2z"/>
					
						<linearGradient id="SVGID_18_" gradientUnits="userSpaceOnUse" x1="1118.9595" y1="1201.4069" x2="1154.2223" y2="1201.4069" gradientTransform="matrix(0.9782 0.2075 -0.2075 0.9782 -455.6249 -1162.5809)">
						<stop  offset="0" style="stop-color:#F788A8"/>
						<stop  offset="1" style="stop-color:#FF4D7B"/>
					</linearGradient>
					<path class="st37" d="M389.8,274.7c-1.8-0.4-3.4-1.6-4.3-3.4c-1.5-3.1-0.3-6.9,2.8-8.4l20.5-10.2l8-26.1c1-3.3,4.5-5.2,7.8-4.2
						c3.3,1,5.2,4.5,4.2,7.8l-8.8,28.7c-0.5,1.7-1.7,3-3.2,3.8l-22.9,11.4C392.6,274.8,391.2,274.9,389.8,274.7z"/>
					<g>
						<g>
							<path class="st11" d="M424.4,405.3l-6.3,0.1c-0.4,4.5,3.4,14-2.5,16.8c-7.3,3.5-10.3,4.7-11.7,8.8c-0.2,0.5,0.2,1,0.7,1
								l21.1-0.3c0.4,0,0.8-0.4,0.7-0.8C425.8,428.8,423.5,409.1,424.4,405.3z"/>
							<path class="st11" d="M458.4,404.3l-6.3,0.2c-0.4,4.5,3.6,14-2.4,16.8c-7.2,3.5-10.2,4.8-11.6,8.9c-0.2,0.5,0.2,1,0.7,1
								l21.1-0.5c0.4,0,0.8-0.4,0.7-0.8C460,427.8,457.5,408.1,458.4,404.3z"/>
						</g>
						<g>
							<g>
								<path class="st10" d="M416.6,412.1c0.2,0.5,4.5,0.6,7.1,0.5c1.2,0,2,0,2,0l4.3-34.9c0.2-2.5,0.6-5.1,1-7.6
									c1.9-11.6,2.2-58.4,2.2-58.4l4.8-0.2c0,0,5.6,38,6.5,48.6c0.2,1.7,0.5,3.4,0.8,5c0.4,1.8,0.5,3.1,0.4,5.9
									c-0.2,4,4.7,41.6,4.7,41.6l8.9-0.8c0,0-1.1-45.3-2-54.8c-0.8-8.2-0.6-51.7-0.5-63.8c0-0.2,0-0.4,0-0.5c0-1.6,0-2.6,0-2.6
									l-0.6,0l-39.3,2.1c0,0,0,0.5,0,1.3c0,0.3,0,0.7,0,1.2l0,0.1c0,0.1,0,0.2,0,0.3c0,0.9,0,2.1,0,3.4
									c-0.1,12.5-0.2,39.8-0.5,47.7C416.2,356.6,416.3,411.4,416.6,412.1z"/>
							</g>
							<g>
								<g>
									<path class="st19" d="M419.7,412.2c-0.4-0.8-0.5-55.7-0.1-66c0.3-8.8,0.4-41.3,0.5-47.7c0-1.3,0-2.5,0-3.4l0.5,0
										c0,0.9,0,2.1,0,3.4c0,6.4-0.2,38.8-0.5,47.7c-0.4,11.1-0.2,64.6,0.1,65.8L419.7,412.2z"/>
								</g>
							</g>
							<g>
								<g>
									<path class="st19" d="M455.9,411.9c0-0.5-1.1-45.4-2-54.8c-0.8-8.4-0.5-55.1-0.5-64.4l0-2.3l-0.3,0l0-0.5l0.8,0l0,2.8
										c-0.1,9.3-0.3,55.9,0.5,64.3c0.9,9.4,2,54.4,2,54.8L455.9,411.9z"/>
								</g>
							</g>
							<path class="st20" d="M445.3,365.2c-0.4-1.7-0.7-3.3-0.8-5c-0.9-10.1-6.1-45.5-6.5-48.6l4.5,0c1.2,2.4,2.2,5.2,2.5,7.9
								c0.8,7.5,1.1,15,1.5,22.5c1.1,27.5,4.2,43,5.4,70.5l-1.4,0.1c0,0-4.9-37.5-4.7-41.5C445.8,368.3,445.7,367,445.3,365.2z"/>
							<path class="st20" d="M429,361.2c1.8-16.2,4.1-33.6,0.9-49.4l3.4-0.1c0,5.2-0.3,47.5-2.2,58.4c-0.4,2.5-0.8,5-1,7.6
								l-4.3,34.9c0,0-0.8,0-2,0C424.7,391.6,426.6,382.2,429,361.2z"/>
						</g>
					</g>
					<g>
						<path class="st35" d="M417.1,296.4c2.9,0.8,8,2.6,17,1.7c6.9-0.7,18.5-1.2,22.9-4.9c0-0.2,0-0.4,0-0.5c0-1.6,0-2.6,0-2.6
							l-0.6,0c-4.4,3.8-15.8,3.5-22.7,4.2c-8.9,0.8-13.7,0.5-16.6-0.7c0,0,0,0,0,0c0,0.4,0,0.8,0,1.2l0,0.1
							C417,295.2,417.1,295.7,417.1,296.4z"/>
						
							<rect x="442" y="291.8" transform="matrix(-0.9956 9.376457e-02 -9.376457e-02 -0.9956 910.8825 548.1303)" class="st140" width="1.2" height="7.3"/>
						
							<rect x="425.4" y="293.7" transform="matrix(-0.9956 9.376457e-02 -9.376457e-02 -0.9956 878.0286 553.4592)" class="st140" width="1.2" height="7.3"/>
						<g>
							<g>
								<path class="st19" d="M431.1,298.9l-0.2-2.2c-0.1-0.7,0.4-1.3,1.1-1.3l4.2-0.4c0.7-0.1,1.3,0.4,1.3,1.1l0.2,2.2
									c0.1,0.7-0.4,1.3-1.1,1.3l-4.2,0.4C431.8,300.1,431.2,299.6,431.1,298.9z M432.1,295.8c-0.4,0-0.8,0.4-0.7,0.9l0.2,2.2
									c0,0.4,0.4,0.8,0.9,0.7l4.2-0.4c0.4,0,0.8-0.4,0.7-0.9l-0.2-2.2c0-0.4-0.4-0.8-0.9-0.7L432.1,295.8z"/>
							</g>
						</g>
						
							<rect x="434.9" y="299.6" transform="matrix(-0.9956 9.376457e-02 -9.376457e-02 -0.9956 896.9094 565.9556)" class="st19" width="0.4" height="8.8"/>
					</g>
					<g>
						
							<linearGradient id="SVGID_19_" gradientUnits="userSpaceOnUse" x1="4460.5332" y1="149.3611" x2="4464.3799" y2="217.8638" gradientTransform="matrix(-0.9997 2.572462e-02 2.572462e-02 0.9997 4894.2939 -39.9452)">
							<stop  offset="0" style="stop-color:#F788A8"/>
							<stop  offset="1" style="stop-color:#FF4D7B"/>
						</linearGradient>
						<path class="st38" d="M417,292.8c0.3,5.3,40.2,2.4,39.8-2.9c-2-34.1,6.8-58.3,1.5-63.7c-0.6-0.6-2.5-4.3-11-7.4
							c-0.3-0.1-0.7-0.2-1-0.4c-0.1,0-0.2-0.1-0.4-0.1c-0.3-0.1-0.5-0.1-0.8-0.2c0,0-0.1,0-0.1,0c-1.5-0.3-3.1-0.5-4.6-0.6
							c-1.3-0.1-2.6-0.1-3.9-0.1c-0.2,0-0.3,0-0.5,0c-0.3,0-0.7,0-1,0.1c-0.3,0-0.6,0-0.8,0.1c-1.2,0.1-2.5,0.2-3.8,0.5
							c-0.4,0.1-0.8,0.2-1.2,0.3c-0.4,0.1-0.7,0.2-1.1,0.2c-3.6,0.9-7.1,2.5-9.4,5.2C416.2,237.9,417.5,268,417,292.8z"/>
					</g>
					<g>
						<path class="st22" d="M427.6,276.7c1.6-1.2,3.2-2.4,4.9-3.7c1.6-1.2,3.2-2.5,4.8-3.7c3.2-2.5,6.3-5.1,9.4-7.7l0.2-0.2l0-0.3
							c0.2-2.4,0.3-4.8,0.4-7.2c0.1-2.4,0.2-4.8,0.3-7.2c0.1-2.4,0.2-4.8,0.2-7.2c0-2.4,0.5-5.1,0.5-7.5c-0.3,2.4-1,5.1-1.2,7.5
							c-0.2,2.4-0.4,4.8-0.6,7.2c-0.2,2.4-0.4,4.8-0.5,7.2c-0.1,2.3-0.3,4.6-0.4,6.9c-3,2.5-6,5.1-8.9,7.7c-1.5,1.3-3,2.7-4.5,4.1
							C430.5,273.9,429,275.3,427.6,276.7z"/>
					</g>
					<g>
						<g>
							<path class="st14" d="M428.1,218.5c0.3,1.5,1.3,2.8,2.7,3.9c1.8,1.3,4.2,2.1,6.7,2.2c0.2,0,0.5,0,0.7,0
								c4.7-0.1,8.4-2.6,9.1-5.9c-0.3-0.1-0.7-0.2-1-0.4c-0.1,0-0.2-0.1-0.4-0.1c-0.3-0.1-0.5-0.1-0.8-0.2c0,0-0.1,0-0.1,0
								c-1.5-0.3-3.1-0.5-4.6-0.6c-1.5,0-3-0.1-4.4-0.1c-0.3,0-0.7,0-1,0.1c-0.3,0-0.6,0-0.8,0.1c-1.2,0.1-2.5,0.2-3.8,0.5
								c-0.4,0.1-0.8,0.2-1.2,0.3C428.8,218.4,428.4,218.5,428.1,218.5z"/>
							<linearGradient id="SVGID_20_" gradientUnits="userSpaceOnUse" x1="437.6599" y1="212.874" x2="437.7144" y2="220.6098">
								<stop  offset="3.603600e-03" style="stop-color:#FCB3B3"/>
								<stop  offset="1" style="stop-color:#FC8E8E"/>
							</linearGradient>
							<path class="st39" d="M429.1,218.3c0.6,2.9,4.1,5.1,8.4,5.2c4.5,0.1,8.2-2.1,8.8-5.1c-0.1,0-0.2-0.1-0.4-0.1
								c-0.3-0.1-0.5-0.1-0.8-0.2c0,0-0.1,0-0.1,0c-0.7-0.1-1.3-0.2-2-0.3l-0.4-16.4c-0.1-2.7-2.3-4.8-4.9-4.7
								c-1.3,0-2.5,0.6-3.4,1.5c-0.8,0.9-1.3,2.1-1.3,3.4l0.4,16c-1,0.1-2,0.2-3.1,0.4C429.9,218.1,429.5,218.2,429.1,218.3z"/>
							<g>
								<linearGradient id="SVGID_21_" gradientUnits="userSpaceOnUse" x1="437.9539" y1="193.6211" x2="437.1368" y2="213.3964">
									<stop  offset="3.603600e-03" style="stop-color:#FCB3B3"/>
									<stop  offset="1" style="stop-color:#FC8E8E"/>
								</linearGradient>
								<path class="st40" d="M429.5,191.8l-1.2,11.8c-0.5,4.9,3.1,9.2,7.9,9.7c4.9,0.5,9.2-3.1,9.7-7.9l1.2-11.8
									c0.5-4.9-3.1-9.2-7.9-9.7c-2.4-0.2-4.7,0.5-6.5,2C431,187.2,429.8,189.3,429.5,191.8z"/>
								<linearGradient id="SVGID_22_" gradientUnits="userSpaceOnUse" x1="445.6009" y1="197.7206" x2="449.6119" y2="197.7206">
									<stop  offset="3.603600e-03" style="stop-color:#FCB3B3"/>
									<stop  offset="1" style="stop-color:#FC8E8E"/>
								</linearGradient>
								<path class="st41" d="M445.6,201.5c0.9,0.1,1.6-0.6,2.2-1.3c0.9-1.2,1.5-2.7,1.8-4.2c0.1-0.6,0.1-1.4-0.4-1.8
									c-0.3-0.2-0.7-0.3-1.1-0.1c-0.4,0.1-0.7,0.4-0.9,0.7c-0.7,0.8-1.2,1.9-1.3,3L445.6,201.5z"/>
								<g>
									<linearGradient id="SVGID_23_" gradientUnits="userSpaceOnUse" x1="423.5649" y1="189.5534" x2="449.2768" y2="189.5534">
										<stop  offset="0" style="stop-color:#4048C8"/>
										<stop  offset="1" style="stop-color:#2D32A4"/>
									</linearGradient>
									<path class="st42" d="M425.6,191.9c3.8,2.5,18.3,0.3,18.6,0.2c0,0,0.1,0.1,0.1,0.2c0.1,1.2,0,7.8,0.6,8.8
										c0.7,1.1,0.7-1.3,0.9-1.9c0.2-0.6,1.2-4.4,1.2-4.4s0.2-1.7,1-3.3c0.8-1.5,2.3-5.1,0.6-7.5c-1.8-2.4-4-1.1-4-1.1
										s-5.1-5.8-10.4-5.2c-5.3,0.6-3.1,4.7-3.1,4.7s-2.7-0.7-4.6-0.3c-1,0.2-1.7,0.7-1.9,1.7
										C424.5,183.9,421.8,189.3,425.6,191.9z"/>
									<linearGradient id="SVGID_24_" gradientUnits="userSpaceOnUse" x1="428.0115" y1="194.2" x2="426.8341" y2="195.3775">
										<stop  offset="0" style="stop-color:#4048C8"/>
										<stop  offset="1" style="stop-color:#2D32A4"/>
									</linearGradient>
									<path class="st43" d="M425.6,191.9c3.8,2.5,18.3,0.3,18.6,0.2c0,0,0.1,0.1,0.1,0.2c0.1-0.1,0.2-0.2,0.2-0.3
										c-0.3-0.3-1.1-0.1-1.6-0.1c-0.6,0-1.3,0-1.9,0c-1.3,0-2.6-0.1-3.9-0.4c-2.7-0.5-5.2-1.6-7.2-3.4c-1.7-1.6-2.7-3.7-3.6-5.8
										c-1,0.2-1.7,0.7-1.9,1.7C424.5,183.9,421.8,189.3,425.6,191.9z"/>
								</g>
							</g>
						</g>
						<g>
							<g>
								<path class="st29" d="M431.3,196.5c1,0.3,2.2,0.2,3.1-0.2c0.2-0.1,0.2-0.3,0-0.4c-0.5-0.2-1-0.2-1.6-0.2
									c-0.5,0-1.1,0.2-1.5,0.4C431.1,196.2,431.1,196.4,431.3,196.5z"/>
							</g>
							<g>
								<path class="st29" d="M439.6,196.2c0.9,0.5,2.1,0.7,3.1,0.4c0.2-0.1,0.2-0.2,0-0.4c-0.4-0.3-1-0.4-1.5-0.5
									c-0.5-0.1-1.1,0-1.6,0.1C439.5,195.9,439.4,196.1,439.6,196.2z"/>
							</g>
							<g>
								<g>
									<path class="st14" d="M438.1,210.2c1.2,0,2.1-0.8,2.4-1.4c0.1-0.2,0-0.4-0.1-0.5c-0.2-0.1-0.4,0-0.5,0.1
										c0,0.1-0.9,1.5-2.5,0.9c-0.2-0.1-0.4,0-0.4,0.2c-0.1,0.2,0,0.4,0.2,0.4C437.5,210.2,437.8,210.2,438.1,210.2z"/>
								</g>
								<g>
									<circle class="st29" cx="439.7" cy="200.9" r="0.6"/>
								</g>
								<g>
									<circle class="st29" cx="433.4" cy="200.8" r="0.6"/>
								</g>
								<g>
									<path class="st14" d="M429.6,201.2c0-1.7,1.5-3.1,3.2-3.1c1.7,0,3.2,1.5,3.1,3.2c0,1.7-1.5,3.1-3.2,3.1
										C430.9,204.3,429.5,202.9,429.6,201.2z M430.1,201.2c0,1.5,1.2,2.6,2.6,2.7c1.5,0,2.6-1.2,2.7-2.6s-1.2-2.6-2.6-2.7
										C431.3,198.5,430.1,199.7,430.1,201.2z"/>
								</g>
								<g>
									<path class="st14" d="M436.8,201.2c0-1.7,1.5-3.1,3.2-3.1c1.7,0,3.2,1.5,3.1,3.2s-1.5,3.1-3.2,3.1S436.8,203,436.8,201.2z
										 M437.3,201.2c0,1.5,1.2,2.6,2.6,2.7c1.5,0,2.6-1.2,2.7-2.6c0-1.5-1.2-2.6-2.6-2.7C438.5,198.6,437.3,199.8,437.3,201.2z"
										/>
								</g>
								<g>
									<path class="st14" d="M436.9,201.4l0.4-0.4c-0.4-0.3-0.7-0.5-1.1-0.5c-0.3,0-0.6,0.2-0.8,0.5l0.4,0.3
										c0.1-0.2,0.3-0.3,0.4-0.3C436.4,201.1,436.7,201.2,436.9,201.4z"/>
								</g>
							</g>
							<g>
								<linearGradient id="SVGID_25_" gradientUnits="userSpaceOnUse" x1="436.2961" y1="209.4733" x2="436.2961" y2="208.1279">
									<stop  offset="3.603600e-03" style="stop-color:#FCB3B3"/>
									<stop  offset="1" style="stop-color:#FC8E8E"/>
								</linearGradient>
								<path class="st44" d="M435.1,206.5l2.4,0c0.2,0,0.3-0.2,0.2-0.3c-0.4-0.8-0.7-1.7-0.9-2.5c0-0.1-0.1-0.2-0.2-0.2l-0.5,0
									c-0.1,0-0.2,0.1-0.2,0.2c-0.2,0.8-0.6,1.7-1,2.5C434.8,206.4,434.9,206.5,435.1,206.5z"/>
							</g>
						</g>
					</g>
					<g>
						<g>
							<g>
								<g class="st148">
									<g>
										<polygon class="st109" points="330.7,256.6 335.7,261.1 336.4,261.7 350.5,274.3 355,271.2 356.9,264.9 355.9,262.5 
											338.7,258.5 337.3,258.2 										"/>
									</g>
								</g>
							</g>
						</g>
						<g>
							<g>
								<g>
									<g>
										<g class="st148">
											<g>
												<path class="st9" d="M349,271.8c0.2,1.4,0.9,2.3,1.8,2.6l81.6,38.7l-2.8-3.1l-76.1-36.1L349,271.8z"/>
											</g>
											<g>
												<path class="st49" d="M349,271.5c0,0.1,0,0.2,0,0.2l4.6,2.1l76.1,36.1l1.9-6.3l-74.2-35l-6.4-3.2
													C349.6,267.2,348.8,269.5,349,271.5z"/>
											</g>
											<g>
												<path class="st52" d="M350.9,265.4l6.4,3.2l74.2,35l0.1,0l4.4-3.1L356.9,263c-0.3-0.2-0.6-0.4-1-0.5
													c-0.9-0.3-1.9-0.1-2.9,0.7C352.2,263.8,351.4,264.5,350.9,265.4z"/>
											</g>
											<g>
												<polygon class="st149" points="431.6,303.6 429.7,309.9 432.3,313.1 436.9,310 438.8,303.7 436.1,300.5 												"/>
											</g>
										</g>
									</g>
								</g>
							</g>
							<g>
								<g>
									<g class="st148">
										<g>
											<path class="st3" d="M421.7,305.9c0.1,1.5,0.7,2.4,1.6,2.9l11,5.3c-0.9-0.4-1.5-1.4-1.6-2.9c-0.2-2.9,1.5-6.7,4-8.4
												c1.2-0.8,2.4-1,3.3-0.6l-11-5.3c-0.9-0.4-2-0.3-3.3,0.6C423.3,299.2,421.5,302.9,421.7,305.9z"/>
										</g>
										<g>
											<path class="st2" d="M436.7,302.8c-2.4,1.7-4.2,5.4-4,8.3c0.2,2.9,2.4,3.9,4.8,2.3c2.4-1.7,4.2-5.4,4-8.3
												C441.3,302.1,439.1,301.1,436.7,302.8z"/>
										</g>
									</g>
								</g>
								<g>
									<path class="st2" d="M423,306.5c0.1,1.5,0.7,2.4,1.6,2.9l2.1,1c-0.9-0.4-1.5-1.4-1.6-2.9c-0.2-2.9,1.5-6.7,4-8.4
										c1.2-0.8,2.4-1,3.3-0.6l-2.1-1c-0.9-0.4-2-0.3-3.3,0.6C424.5,299.8,422.7,303.6,423,306.5z"/>
								</g>
								<g>
									<path class="st2" d="M426.7,308.3c0.1,1.5,0.7,2.4,1.6,2.9l2.1,1c-0.9-0.4-1.5-1.4-1.6-2.9c-0.2-2.9,1.5-6.7,4-8.4
										c1.2-0.8,2.4-1,3.3-0.6l-2.1-1c-0.9-0.4-2-0.3-3.3,0.6C428.2,301.6,426.4,305.3,426.7,308.3z"/>
								</g>
							</g>
							<g>
								<g class="st148">
									<g>
										<path class="st12" d="M432.7,311.1c0.1,1.5,0.7,2.4,1.6,2.9l6.2,3c-0.9-0.4-1.5-1.4-1.6-2.9c-0.2-2.9,1.5-6.7,4-8.4
											c1.2-0.8,2.4-1,3.3-0.6l-6.2-3c-0.9-0.4-2-0.3-3.3,0.6C434.2,304.5,432.5,308.2,432.7,311.1z"/>
									</g>
									<g>
										<path class="st22" d="M442.8,305.7c-2.4,1.7-4.2,5.4-4,8.3c0.2,2.9,2.4,3.9,4.8,2.3c2.4-1.7,4.2-5.4,4-8.3
											C447.4,305.1,445.3,304.1,442.8,305.7z"/>
									</g>
								</g>
							</g>
						</g>
						<path class="st29" d="M330.7,256.6l5,4.5l0.7,0.6c1.1-0.8,1.9-1.9,2.2-3.2l-1.4-0.3L330.7,256.6z"/>
					</g>
					<g>
						<g id="XMLID_96_">
							<g id="XMLID_98_">
								<g id="XMLID_192_">
									<path id="XMLID_193_" class="st15" d="M425.8,283.5l-3.7,3.9c0,0-1.9-0.7-3.8-0.1c-1.9,0.6-4.9,0.4-5.4,0.2
										c0,0-1-0.2-1.3-0.4c-0.3-0.2-0.7-0.8-1.1-0.7c-0.3,0.1-0.8,1.1,0.7,2.3s2.5,1,3.1,1.5c0.6,0.5,0.6,1.1,0.4,1.5
										s-1.8,1.8-2.2,2.1c-0.4,0.3-2.5,1.5-3.6,2.2s-2.9,2-3,2.8s0.9,0.7,1.3,0.5c0.5-0.3,2.4-1.4,2.9-1.6
										c0.6-0.2,2.6-1.6,2.8-1.6c0.2-0.1,0.6-0.2,0.7,0.2c0.1,0.4-2,1.6-2.9,2.5c-0.8,0.9-1.8,1.6-2.6,2.3c-0.8,0.7-1,1.6-0.6,2
										c0.4,0.4,1.1,0.1,2.1-0.7s2.8-2.1,3.3-2.5c0.5-0.4,1.8-1.6,2.2-1.7c0.4,0,0.8,0.3,0.4,0.9s-1.4,1.7-1.8,2.5
										c-0.5,0.9-1.7,2.7-1.8,2.7s-0.7,0.8-0.1,1.4s1.4-0.2,2.1-1.2s2-2.3,2.2-2.8c0.2-0.4,1.6-2,1.7-2.1c0.2-0.1,1-0.1,0.7,1.1
										c-0.3,1.1-1.1,4.1-0.8,4.4c0.3,0.3,0.6,0.4,1.1-0.1c0.5-0.5,1.3-3.6,1.4-4c0.1-0.4,0.6-2,0.9-2.6c0.4-0.6,2-1.7,2.9-2.6
										c1.4-1.5,0.8-2.5,1.3-2.9c0.2-0.1,4.9-4.7,4.9-4.7L425.8,283.5z"/>
								</g>
								<path id="XMLID_191_" class="st16" d="M411.3,296.9c0,0,1.2-1.6,2.3-1.4c1.1,0.2-0.4,1.3-0.4,1.3s0.7-0.5,0.6-0.8
									C413.3,295.5,411.3,296.9,411.3,296.9z"/>
								<path id="XMLID_190_" class="st16" d="M413.2,299.6c0,0,0.9-1.2,1.7-1.6s1-0.1,1.2,0.2c0.1,0.3-0.5,0.9-0.5,0.9
									s0.4-0.6,0.2-0.9s-0.6-0.2-0.7-0.1C414.9,298.3,413.3,299.6,413.2,299.6L413.2,299.6z"/>
								<path id="XMLID_189_" class="st16" d="M417.5,300.4c0,0,0.3-0.9,1-1c0.7-0.2,0.4,1.2,0.4,1.2s0.2-0.9-0.4-0.8
									C417.9,299.8,417.5,300.4,417.5,300.4z"/>
								<path id="XMLID_188_" class="st16" d="M410.2,286.9c0,0,0.5,1.6,1.8,2c1.3,0.4,3.2,0.4,2.8,2.5c0,0,0.4-0.8-0.9-1.3
									c-1.3-0.6-1.7-0.5-2.7-1.2C409.9,287.8,410.2,286.9,410.2,286.9z"/>
								<path id="XMLID_187_" class="st16" d="M421.6,298.4c0,0,0.4-1.1,1.2-1.7c0.8-0.6,1.4-1.2,1.4-2.2c0.1-1,0.9-2.3,3-2.9
									l-1.4,1.3c0,0-0.2,0.3-0.3,0.7c-0.1,0.4-0.2,1.4-0.9,2C424,296.2,421.6,298.4,421.6,298.4z"/>
							</g>
						</g>
						<path class="st17" d="M430.4,278.5l-5.5,4.8c-1.7,1.5-1.9,4.1-0.4,5.9l0.3,0.3c1.5,1.7,4.1,1.9,5.9,0.4l5.5-4.8
							c1.7-1.5,1.9-4.1,0.4-5.8l-0.3-0.3C434.7,277.1,432.1,277,430.4,278.5z"/>
						<g>
							
								<linearGradient id="SVGID_26_" gradientUnits="userSpaceOnUse" x1="1310.5758" y1="-177.7448" x2="1347.9485" y2="-177.7448" gradientTransform="matrix(0.9996 -2.926294e-02 2.926294e-02 0.9996 -879.9193 473.9345)">
								<stop  offset="0" style="stop-color:#F788A8"/>
								<stop  offset="1" style="stop-color:#FF4D7B"/>
							</linearGradient>
							<path class="st46" d="M432.5,288.6c-2,0.1-3.9-0.8-5.3-2.4c-2.4-2.8-2-7,0.8-9.4l18.6-15.6l1.7-28.8c0.2-3.7,3.4-6.5,7-6.3
								c3.7,0.2,6.5,3.4,6.3,7l-1.8,31.7c-0.1,1.8-1,3.5-2.4,4.7L436.5,287C435.4,288,433.9,288.6,432.5,288.6z"/>
						</g>
					</g>
				</g>
			</g>
			<g>
				<path class="st3" d="M395.8,117.9h40.6c2,0,3.7,1.7,3.7,3.7v15.6c0,2-1.7,3.7-3.7,3.7h-37.1c-0.5,0-1,0.2-1.3,0.5l-5.3,5.3
					c-0.2,0.2-0.6,0.1-0.6-0.2v-25C392.1,119.6,393.8,117.9,395.8,117.9z"/>
				<path class="st3" d="M372.8,79.9H318c-2.8,0-5,2.2-5,5V106c0,2.8,2.2,5,5,5h50c0.7,0,1.3,0.3,1.8,0.7l7.2,7.2
					c0.3,0.3,0.8,0.1,0.8-0.3V84.9C377.8,82.1,375.5,79.9,372.8,79.9z"/>
			</g>
		</g>
		<g>
			<g>
				<path class="st0" d="M475,433.6H25c-0.8,0-1.5-0.7-1.5-1.5s0.7-1.5,1.5-1.5h450c0.8,0,1.5,0.7,1.5,1.5S475.8,433.6,475,433.6z"
					/>
			</g>
		</g>
	</g>
	<path class="st15" d="M210.2,155.9c-1.1,3.1,2.3,7.1,7.4,8.8c5.2,1.7,9-9.6,3.8-11.3C216.3,151.6,211.2,152.8,210.2,155.9z"/>
	<path class="st15" d="M186.8,155.9c1.1,3.1-2.3,7.1-7.4,8.8c-5.2,1.7-9-9.6-3.8-11.3C180.7,151.6,185.7,152.8,186.8,155.9z"/>
</g>
</svg>
